<svg xmlns="http://www.w3.org/2000/svg" viewBox="0 0 1600 1200" fill="none">
  <defs>
    <linearGradient id="plate-bg" x1="180" y1="124" x2="1420" y2="1072" gradientUnits="userSpaceOnUse">
      <stop offset="0" stop-color="#11141B"/>
      <stop offset="0.55" stop-color="#0B0D12"/>
      <stop offset="1" stop-color="#08090D"/>
    </linearGradient>
    <radialGradient id="plate-warm" cx="0" cy="0" r="1" gradientUnits="userSpaceOnUse" gradientTransform="translate(314 228) rotate(25.389) scale(552 344)">
      <stop offset="0" stop-color="#D8AA73" stop-opacity=".5"/>
      <stop offset=".38" stop-color="#D8AA73" stop-opacity=".14"/>
      <stop offset="1" stop-color="#D8AA73" stop-opacity="0"/>
    </radialGradient>
    <radialGradient id="plate-cool" cx="0" cy="0" r="1" gradientUnits="userSpaceOnUse" gradientTransform="translate(1210 882) rotate(-11.593) scale(468 304)">
      <stop offset="0" stop-color="#7DB7B0" stop-opacity=".42"/>
      <stop offset=".42" stop-color="#7DB7B0" stop-opacity=".12"/>
      <stop offset="1" stop-color="#7DB7B0" stop-opacity="0"/>
    </radialGradient>
    <linearGradient id="plate-thread" x1="184" y1="292" x2="1426" y2="936" gradientUnits="userSpaceOnUse">
      <stop offset="0" stop-color="#F1C48C" stop-opacity=".46"/>
      <stop offset=".5" stop-color="#D8AA73" stop-opacity=".14"/>
      <stop offset="1" stop-color="#7DB7B0" stop-opacity=".34"/>
    </linearGradient>
    <linearGradient id="plate-thread-2" x1="274" y1="1040" x2="1360" y2="286" gradientUnits="userSpaceOnUse">
      <stop offset="0" stop-color="#7DB7B0" stop-opacity=".28"/>
      <stop offset=".48" stop-color="#F1C48C" stop-opacity=".08"/>
      <stop offset="1" stop-color="#F7EEE1" stop-opacity=".3"/>
    </linearGradient>
  </defs>

  <rect width="1600" height="1200" rx="44" fill="url(#plate-bg)"/>
  <ellipse cx="346" cy="226" rx="430" ry="258" fill="url(#plate-warm)"/>
  <ellipse cx="1220" cy="886" rx="388" ry="238" fill="url(#plate-cool)"/>

  <g opacity=".42">
    <path d="M126 296H918" stroke="url(#plate-thread)" stroke-width="1.6"/>
    <path d="M628 170C836 198 986 284 1160 430C1290 540 1364 662 1468 814" stroke="url(#plate-thread)" stroke-width="1.2"/>
    <path d="M286 1028C564 892 714 754 844 590C938 472 1014 338 1170 210" stroke="url(#plate-thread-2)" stroke-width="1.15"/>
  </g>

  <g opacity=".2">
    <rect x="160" y="156" width="1280" height="888" rx="34" stroke="url(#plate-thread)"/>
    <rect x="214" y="210" width="1172" height="780" rx="24" stroke="url(#plate-thread-2)" stroke-opacity=".54"/>
  </g>
</svg>
